HIERARCHY
ROOT Hips
{
 OFFSET 0.000000 0.000000 0.000000
 CHANNELS 6 Xposition Yposition Zposition Yrotation Xrotation Zrotation
 JOINT Chest
 {
  OFFSET 0.000000 9.585900 0.002600
  CHANNELS 3 Yrotation Xrotation Zrotation
  JOINT Chest2
  {
   OFFSET 0.000000 9.601200 -0.005300
   CHANNELS 3 Yrotation Xrotation Zrotation
   JOINT Chest3
   {
    OFFSET 0.000000 9.561800 0.000000
    CHANNELS 3 Yrotation Xrotation Zrotation
    JOINT Chest4
    {
     OFFSET 0.000000 9.552100 0.000000
     CHANNELS 3 Yrotation Xrotation Zrotation
     JOINT Neck
     {
      OFFSET 0.000000 14.453000 0.000000
      CHANNELS 3 Yrotation Xrotation Zrotation
      JOINT Head
      {
       OFFSET 0.000000 8.936500 -0.011300
       CHANNELS 3 Yrotation Xrotation Zrotation
       End Site
       {
        OFFSET 0.000000 17.073600 -0.006000
       }
      }
     }
     JOINT RightCollar
     {
      OFFSET -2.921100 9.558500 0.000000
      CHANNELS 3 Yrotation Xrotation Zrotation
      JOINT RightShoulder
      {
       OFFSET -13.519700 0.000000 0.000000
       CHANNELS 3 Yrotation Xrotation Zrotation
       JOINT RightElbow
       {
        OFFSET 0.000000 -29.696600 0.000000
        CHANNELS 3 Yrotation Xrotation Zrotation
        JOINT RightWrist
        {
         OFFSET 0.000000 -24.004700 0.000000
         CHANNELS 3 Yrotation Xrotation Zrotation
         End Site
         {
          OFFSET 0.000000 -17.728500 0.000000
         }
        }
       }
      }
     }
     JOINT LeftCollar
     {
      OFFSET 2.921100 9.558500 0.000000
      CHANNELS 3 Yrotation Xrotation Zrotation
      JOINT LeftShoulder
      {
       OFFSET 13.519700 0.000000 0.000000
       CHANNELS 3 Yrotation Xrotation Zrotation
       JOINT LeftElbow
       {
        OFFSET 0.000000 -29.696600 0.000000
        CHANNELS 3 Yrotation Xrotation Zrotation
        JOINT LeftWrist
        {
         OFFSET 0.000000 -24.004700 0.000000
         CHANNELS 3 Yrotation Xrotation Zrotation
         End Site
         {
          OFFSET 0.000000 -17.728500 0.000000
         }
        }
       }
      }
     }
    }
   }
  }
 }
 JOINT RightHip
 {
  OFFSET -7.771700 -0.012900 -0.001300
  CHANNELS 3 Yrotation Xrotation Zrotation
  JOINT RightKnee
  {
   OFFSET 0.000000 -40.869800 0.001200
   CHANNELS 3 Yrotation Xrotation Zrotation
   JOINT RightAnkle
   {
    OFFSET 0.000000 -39.717900 0.002100
    CHANNELS 3 Yrotation Xrotation Zrotation
    JOINT RightToe
    {
     OFFSET 0.000000 -4.965400 11.033500
     CHANNELS 3 Yrotation Xrotation Zrotation
     End Site
     {
      OFFSET 0.000000 -1.423100 5.872300
     }
    }
   }
  }
 }
 JOINT LeftHip
 {
  OFFSET 7.771700 -0.012900 -0.001300
  CHANNELS 3 Yrotation Xrotation Zrotation
  JOINT LeftKnee
  {
   OFFSET 0.000000 -40.869800 0.001200
   CHANNELS 3 Yrotation Xrotation Zrotation
   JOINT LeftAnkle
   {
    OFFSET 0.000000 -39.717900 0.002100
    CHANNELS 3 Yrotation Xrotation Zrotation
    JOINT LeftToe
    {
     OFFSET 0.000000 -4.965400 11.033500
     CHANNELS 3 Yrotation Xrotation Zrotation
     End Site
     {
      OFFSET 0.000000 -1.423100 5.872300
     }
    }
   }
  }
 }
}
MOTION
Frames: 9
Frame Time: 0.008333
0.000000 85.388000 0.000000 0.000000 -5.767877 0.000000 0.000000 11.653817 0.000000 0.000000 -5.885947 0.000000 0.000000 -0.000000 0.000000 0.000000 -0.000000 0.000000 0.000000 12.528835 0.000000 0.000000 0.711642 0.000000 0.000000 -0.000000 0.000000 0.000000 0.000000 -90.000000 0.000000 -2.309062 0.000000 0.000000 2.309062 0.000000 0.000000 -0.000000 0.000000 0.000000 -0.000000 90.000000 0.000000 -2.309062 0.000000 0.000000 2.309062 0.000000 0.000000 8.520406 0.000000 0.000000 1.905762 0.000000 -0.000000 -4.658285 0.000000 0.000000 -0.000000 0.000000 0.000000 8.520406 0.000000 0.000000 1.905762 0.000000 -0.000000 -4.658285 0.000000 0.000000 -0.000000 0.000000
-111.060261 46.776742 -34.480804 173.564020 -31.833721 -3.544519 0.785733 20.194744 2.971054 0.039608 2.548690 0.374020 0.082413 4.121770 0.652641 0.608367 17.304076 2.649591 -1.622971 8.785206 3.531502 -4.876931 -19.240897 7.672748 2.749855 -7.258829 -5.544687 8.841946 -33.576550 -36.529558 -160.718043 -78.805192 -166.844613 4.876912 4.663188 -21.397240 -5.844141 -8.170625 4.645644 -5.469060 -32.740891 36.797467 149.013504 -75.874683 -178.380938 -6.247667 6.480588 -1.006430 -4.189552 -53.625858 -1.595708 -157.046598 75.575123 -146.670942 -11.445819 -17.460493 -6.081225 -0.062762 -0.068618 0.007685 -1.707242 -57.209201 13.965977 -117.537477 82.487816 -121.021524 8.664753 -7.039826 5.291838 0.071466 0.118906 0.013250
-111.055357 46.774742 -34.478253 173.560186 -31.837970 -3.530706 0.793201 20.128918 3.029957 0.032964 2.572483 0.340872 0.079452 4.118667 0.656339 0.592405 17.333658 2.623388 -1.556358 8.684495 3.553953 -4.785717 -19.345319 7.624701 2.958294 -7.629856 -5.685444 9.345132 -34.256119 -37.007908 -161.171604 -78.967275 -166.542911 4.812254 4.626519 -21.476650 -6.039985 -8.520726 4.843079 -5.683142 -33.368044 37.153817 149.490738 -75.929469 -178.713323 -6.252682 6.575453 -0.584974 -4.167674 -53.631857 -1.598108 -156.989096 75.561791 -146.620685 -11.452499 -17.454528 -6.075138 -0.055097 -0.072710 0.007921 -1.725896 -57.198245 13.972927 -117.556914 82.507045 -121.049408 8.642135 -7.039087 5.287292 0.080379 0.124302 0.008659
-111.051664 46.773229 -34.475955 173.561106 -31.846993 -3.504958 0.784666 20.123538 3.020041 0.035743 2.548326 0.359860 0.077070 4.114423 0.659278 0.603903 17.264454 2.678138 -1.534154 8.683050 3.496064 -4.692416 -19.445730 7.570411 3.148747 -7.899346 -5.895908 9.848783 -34.934297 -37.491874 -161.562158 -79.142497 -166.314722 4.740526 4.598199 -21.552321 -6.251610 -8.781278 4.960586 -5.890455 -33.990937 37.509129 149.931932 -75.997077 -178.994956 -6.261146 6.689033 -0.171929 -4.131718 -53.630529 -1.630041 -156.950245 75.553783 -146.586577 -11.483283 -17.457614 -6.059333 -0.065471 -0.073039 -0.000847 -1.698126 -57.187162 13.930403 -117.578818 82.527906 -121.066878 8.633915 -7.032572 5.279070 0.080454 0.124727 0.008748
-111.046873 46.771702 -34.472029 173.557223 -31.850478 -3.479223 0.782447 20.092764 3.040373 0.037605 2.517103 0.389379 0.065515 4.159160 0.605169 0.610488 17.211930 2.723344 -1.493586 8.650051 3.461538 -4.595937 -19.538171 7.509615 3.352014 -8.200743 -6.085922 10.359096 -35.608068 -37.982759 -161.956924 -79.328753 -166.101132 4.667314 4.569133 -21.622117 -6.449914 -9.064068 5.111316 -6.089065 -34.619859 37.866240 150.331680 -76.080482 -179.228481 -6.270521 6.817937 0.225168 -4.097685 -53.634574 -1.657291 -156.940438 75.550982 -146.588987 -11.458302 -17.456769 -6.065165 -0.050825 -0.073234 -0.004642 -1.685215 -57.176950 13.906482 -117.545325 82.541449 -121.040436 8.619308 -7.034832 5.287891 0.054107 0.132648 -0.001229
-111.038929 46.770661 -34.466459 173.548305 -31.850107 -3.467723 0.790121 20.056226 3.077727 0.035713 2.518519 0.381688 0.060691 4.172263 0.589153 0.608451 17.203686 2.729121 -1.434091 8.579091 3.461183 -4.499848 -19.621778 7.445208 3.561372 -8.538970 -6.247109 10.873043 -36.273445 -38.479696 -162.401655 -79.514243 -165.858138 4.597869 4.536921 -21.682834 -6.642516 -9.374438 5.307277 -6.277432 -35.256165 38.229754 150.716054 -76.179594 -179.441075 -6.275408 6.952953 0.595033 -4.094469 -53.650266 -1.621173 -156.839415 75.536433 -146.505813 -11.494710 -17.440524 -6.053258 -0.045086 -0.084954 -0.002946 -1.693550 -57.171932 13.914439 -117.508198 82.554444 -121.009609 8.625636 -7.036121 5.283766 0.064914 0.138285 0.000711
-111.032804 46.769893 -34.459923 173.542694 -31.844579 -3.446720 0.789996 20.021069 3.092773 0.035756 2.513103 0.383068 0.059240 4.164900 0.593073 0.615845 17.171493 2.753309 -1.396613 8.555250 3.423487 -4.404797 -19.697456 7.377583 3.755120 -8.824864 -6.443178 11.386047 -36.924951 -38.979680 -162.952425 -79.690855 -165.530531 4.538887 4.498071 -21.724408 -6.846469 -9.635500 5.466042 -6.458227 -35.899804 38.605674 151.152421 -76.288743 -179.694823 -6.272801 7.091403 0.928879 -4.071459 -53.665378 -1.632948 -156.813142 75.538159 -146.488682 -11.499382 -17.426664 -6.050834 -0.057622 -0.089200 -0.004304 -1.699519 -57.167319 13.909612 -117.502546 82.598177 -121.000285 8.569169 -7.024077 5.263681 0.085621 0.141204 0.012404
-111.026301 46.769973 -34.452912 173.522119 -31.839718 -3.420810 0.804148 19.984867 3.112958 0.036166 2.507387 0.384384 0.065771 4.123036 0.622005 0.597289 17.204322 2.724484 -1.342340 8.505172 3.408017 -4.309234 -19.765092 7.304848 3.955631 -9.136779 -6.622716 11.894818 -37.564163 -39.477730 -163.676524 -79.861279 -165.049517 4.490123 4.445801 -21.737326 -7.041504 -9.916026 5.649984 -6.638041 -36.547613 38.999729 151.707586 -76.401133 179.947027 -6.269841 7.233909 1.228886 -4.039046 -53.679574 -1.642321 -156.792962 75.554697 -146.476721 -11.531611 -17.402035 -6.035921 -0.054061 -0.095395 -0.013405 -1.677388 -57.167016 13.896692 -117.493571 82.626105 -120.992784 8.570081 -7.019206 5.255560 0.054879 0.142898 0.014054
-111.023075 46.771387 -34.447370 173.498390 -31.843799 -3.374233 0.814808 19.955772 3.115215 0.035106 2.511231 0.376137 0.071306 4.093080 0.642875 0.603355 17.182044 2.739514 -1.306868 8.490151 3.366534 -4.211087 -19.825494 7.228196 4.141354 -9.409807 -6.826937 12.399084 -38.196726 -39.973710 -164.612394 -80.029352 -164.372896 4.447493 4.377316 -21.723684 -7.245778 -10.164832 5.804094 -6.825863 -37.190120 39.418897 152.440108 -76.510432 179.431791 -6.275021 7.373949 1.498313 -3.973936 -53.682583 -1.696746 -156.805859 75.563801 -146.491956 -11.528534 -17.397037 -6.036088 -0.081613 -0.092683 -0.016465 -1.612061 -57.159373 13.841528 -117.501918 82.655421 -120.994876 8.523980 -7.004697 5.253180 0.068789 0.137234 0.013598
